<?xml version="1.0" encoding="iso-8859-1"?>
<!-- Generator: Adobe Illustrator 16.0.0, SVG Export Plug-In . SVG Version: 6.00 Build 0)  -->
<!DOCTYPE svg PUBLIC "-//W3C//DTD SVG 1.1//EN" "http://www.w3.org/Graphics/SVG/1.1/DTD/svg11.dtd">
<svg xmlns="http://www.w3.org/2000/svg" xmlns:xlink="http://www.w3.org/1999/xlink" version="1.1" id="Capa_1" x="0px" y="0px" width="512px" height="512px" viewBox="0 0 46.079 46.079" style="enable-background:new 0 0 46.079 46.079;" xml:space="preserve">
<g>
	<g>
		<path d="M39.1,24.563c0-2.29-1.855-4.143-4.145-4.143h-7.334V13.06c0-2.289-1.868-4.145-4.156-4.145    c-2.288,0-4.156,1.855-4.156,4.145v7.362h-7.371c-2.289,0-4.146,1.867-4.146,4.156s1.856,4.155,4.146,4.155h7.371v7.33    c0,2.289,1.867,4.145,4.156,4.145c2.289,0,4.156-1.855,4.156-4.145v-7.358l7.338,0.003C37.247,28.708,39.1,26.852,39.1,24.563z" fill="#167a66"/>
		<path d="M2.487,14.938c1.372,0,2.487-1.111,2.487-2.483V4.976h7.43c1.372,0,2.483-1.083,2.483-2.455    c0-1.371-1.111-2.454-2.483-2.454H2.473C1.101,0.066,0,1.152,0,2.524v9.931C0,13.827,1.116,14.938,2.487,14.938z" fill="#167a66"/>
		<path d="M43.591,31.126c-1.372,0-2.487,1.112-2.487,2.483v7.429h-7.422c-1.371,0-2.482,1.116-2.482,2.487s1.111,2.486,2.482,2.486    h9.932c1.371,0,2.466-1.101,2.466-2.472V33.61C46.078,32.239,44.962,31.126,43.591,31.126z" fill="#167a66"/>
		<path d="M12.465,41.104H5.04v-7.435c0-1.371-1.116-2.481-2.487-2.481c-1.372,0-2.487,1.11-2.487,2.481v9.933    c0,1.371,1.097,2.477,2.468,2.477h9.931c1.372,0,2.483-1.116,2.483-2.487C14.948,42.221,13.836,41.104,12.465,41.104z" fill="#167a66"/>
		<path d="M33.62,4.976h7.418v7.419c0,1.371,1.116,2.482,2.487,2.482s2.486-1.111,2.486-2.482V2.462C46.012,1.091,44.923,0,43.551,0    h-9.932c-1.371,0-2.482,1.116-2.482,2.487C31.137,3.858,32.249,4.976,33.62,4.976z" fill="#167a66"/>
	</g>
</g>
<g>
</g>
<g>
</g>
<g>
</g>
<g>
</g>
<g>
</g>
<g>
</g>
<g>
</g>
<g>
</g>
<g>
</g>
<g>
</g>
<g>
</g>
<g>
</g>
<g>
</g>
<g>
</g>
<g>
</g>
</svg>
