<?xml version="1.0" encoding="utf-8"?>
<!-- Generator: Adobe Illustrator 19.1.0, SVG Export Plug-In . SVG Version: 6.00 Build 0)  -->
<!DOCTYPE svg PUBLIC "-//W3C//DTD SVG 1.1//EN" "http://www.w3.org/Graphics/SVG/1.1/DTD/svg11.dtd">
<svg version="1.1" id="Layer_1" xmlns="http://www.w3.org/2000/svg" xmlns:xlink="http://www.w3.org/1999/xlink" x="0px" y="0px"
	 viewBox="-1250 782 38 19" style="enable-background:new -1250 782 38 19;" xml:space="preserve">
<style type="text/css">
	.st0{fill:#FFFFFF;}
	.st1{opacity:0.4;fill:#FFFFFF;enable-background:new    ;}
</style>
<path class="st0" d="M-1232,801h-13c-0.6,0-1-0.4-1-1h13c0.6,0,1-0.4,1-1v-13c0.6,0,1,0.4,1,1v13C-1231,800.6-1231.5,801-1232,801z
	 M-1234.1,799h-12.9c-0.6,0-1-0.4-1-1h13c0.6,0,1-0.4,1-1v-13c0.6,0,1,0.4,1,1v12.9C-1233,798.5-1233.5,799-1234.1,799z M-1236,797
	h-13c-0.6,0-1-0.4-1-1v-13c0-0.6,0.4-1,1-1h12.9c0.6,0,1.1,0.4,1.1,1v13C-1235,796.6-1235.4,797-1236,797z M-1236,784
	c0-0.4-0.6-1-1-1h-11c-0.4,0-1,0.6-1,1v11c0,0.4,0.6,1,1,1h11c0.4,0,1-0.6,1-1V784z M-1242,793h-1v-3h-3v-1h3v-3h1v3h3v1h-3V793z"/>
<path class="st0" d="M-1213,801h-13c-0.6,0-1-0.4-1-1h13c0.6,0,1-0.4,1-1v-13c0.6,0,1,0.4,1,1v13C-1212,800.6-1212.5,801-1213,801z
	 M-1215.1,799h-12.9c-0.6,0-1-0.4-1-1h13c0.6,0,1-0.4,1-1v-13c0.6,0,1,0.4,1,1v12.9C-1214,798.5-1214.5,799-1215.1,799z M-1217,797
	h-13c-0.6,0-1-0.4-1-1v-13c0-0.6,0.4-1,1-1h12.9c0.6,0,1.1,0.4,1.1,1v13C-1216,796.6-1216.4,797-1217,797z M-1217,784
	c0-0.4-0.6-1-1-1h-11c-0.4,0-1,0.6-1,1v11c0,0.4,0.6,1,1,1h11c0.4,0,1-0.6,1-1V784z M-1223,793h-1v-3h-3v-1h3v-3h1v3h3v1h-3V793z"/>
<path class="st1" d="M-1217,784c0-0.4-0.6-1-1-1h-11c-0.4,0-1,0.6-1,1v11c0,0.4,0.6,1,1,1h11c0.4,0,1-0.6,1-1V784z"/>
</svg>
