<?xml version="1.0" encoding="iso-8859-1"?>
<!-- Generator: Adobe Illustrator 18.1.1, SVG Export Plug-In . SVG Version: 6.00 Build 0)  -->
<svg xmlns="http://www.w3.org/2000/svg" xmlns:xlink="http://www.w3.org/1999/xlink" version="1.1" id="Capa_1" x="0px" y="0px" viewBox="0 0 612.002 612.002" style="enable-background:new 0 0 612.002 612.002;" xml:space="preserve" width="512px" height="512px">
<g>
	<g>
		<g>
			<path d="M577.703,0H34.293C23.935,0,15.539,8.397,15.539,18.754v364.452c0,0.228-0.009,0.311,0,0.333     c0.034,5.476,2.466,10.888,7.094,14.56l90.564,71.891c6.83,5.422,16.493,5.422,23.321,0l78.901-62.633l78.905,62.633     c6.831,5.422,16.494,5.422,23.321,0.003l78.908-62.639l78.915,62.639c7.802,6.508,18.406,4.192,23.319,0l90.573-71.891     c4.439-3.526,6.875-8.65,7.094-13.898c0.028,0.288,0,0.289,0-0.144V18.754C596.457,8.397,588.06,0,577.703,0z M558.949,374.354     l-71.818,57.005l-78.915-62.636c-6.828-5.418-16.49-5.418-23.319,0l-78.91,62.636l-78.905-62.636     c-6.828-5.422-16.493-5.422-23.321,0l-78.902,62.636l-71.81-57.005V37.508h505.9V374.354z" fill="#D80027"/>
			<path d="M476.59,117.339H135.407c-10.357,0-18.754,8.396-18.754,18.754c0,10.357,8.397,18.754,18.754,18.754h341.184     c10.357,0,18.754-8.397,18.754-18.754C495.344,125.734,486.947,117.339,476.59,117.339z" fill="#D80027"/>
			<path d="M476.59,202.239H135.407c-10.357,0-18.754,8.397-18.754,18.754c0,10.359,8.397,18.754,18.754,18.754h341.184     c10.357,0,18.754-8.396,18.754-18.754C495.344,210.636,486.947,202.239,476.59,202.239z" fill="#D80027"/>
			<path d="M476.59,287.143H135.407c-10.357,0-18.754,8.394-18.754,18.754c0,10.357,8.397,18.754,18.754,18.754h341.184     c10.357,0,18.754-8.397,18.754-18.754C495.344,295.538,486.947,287.143,476.59,287.143z" fill="#D80027"/>
		</g>
		<path d="M596.457,459.93c-0.17-3.801-1.518-7.588-4.067-10.796c-6.437-8.113-18.235-9.469-26.348-3.03l-78.913,62.639    l-78.913-62.639c-6.828-5.418-16.491-5.418-23.319,0l-78.91,62.636l-78.905-62.633c-6.828-5.422-16.493-5.422-23.321,0    l-78.902,62.633l-78.904-62.633c-8.114-6.444-19.911-5.089-26.35,3.029c-2.547,3.209-3.893,6.994-4.065,10.793    c-0.009,0.113,0,133.319,0,133.319c0,10.357,8.396,18.754,18.754,18.754h543.408c10.357,0,18.754-8.397,18.754-18.754    C596.457,593.246,596.467,460.042,596.457,459.93z M53.049,574.492v-74.867l60.149,47.75c6.83,5.422,16.493,5.422,23.321,0    l78.901-62.636l78.907,62.636c6.828,5.422,16.493,5.422,23.319,0l78.908-62.636l78.915,62.636    c3.413,2.71,7.536,4.067,11.659,4.067s8.246-1.355,11.659-4.067l60.16-47.75v74.867H53.049z" fill="#D80027"/>
	</g>
</g>
<g>
</g>
<g>
</g>
<g>
</g>
<g>
</g>
<g>
</g>
<g>
</g>
<g>
</g>
<g>
</g>
<g>
</g>
<g>
</g>
<g>
</g>
<g>
</g>
<g>
</g>
<g>
</g>
<g>
</g>
</svg>
