<?xml version="1.0" encoding="iso-8859-1"?>
<!-- Generator: Adobe Illustrator 19.1.0, SVG Export Plug-In . SVG Version: 6.00 Build 0)  -->
<svg version="1.1" id="Capa_1" xmlns="http://www.w3.org/2000/svg" xmlns:xlink="http://www.w3.org/1999/xlink" x="0px" y="0px"
	 viewBox="0 0 216.291 216.291" style="enable-background:new 0 0 216.291 216.291;" xml:space="preserve">
<g>
	<g id="group-119svg">
		<path id="path-1_22_" style="fill:#FF3A2F;" d="M152.873,190.204H32.88V42.209h119.993V190.204z"/>
		<path id="path-2_22_" style="opacity:0.25;fill:#020403;enable-background:new    ;" d="M131.378,40.528v104.118
			c0,12.294-9.863,22.26-22.028,22.26H32.368v22.979h120.083V40.528H131.378z"/>
		<path id="path-3_22_" style="fill:#142A3B;" d="M68.878,172.102c-2.012,0-3-1.615-3-3.603V81.981c0-1.99,0.988-3.605,3-3.605
			c2.011,0,3,1.615,3,3.605v86.518C71.878,170.487,70.889,172.102,68.878,172.102z"/>
		<path id="path-4_22_" style="fill:#142A3B;" d="M116.375,172.102c-2.011,0-3.5-1.615-3.5-3.603V81.981
			c0-1.99,1.489-3.605,3.5-3.605s3.5,1.615,3.5,3.605v86.518C119.875,170.487,118.386,172.102,116.375,172.102z"/>
		<path id="path-5_22_" style="opacity:0.35;enable-background:new    ;" d="M152.683,60.462V42.327H32.843L152.683,60.462z"/>
		<path id="path-6_22_" style="fill:#FF3A2F;" d="M133.829,36.653L84.741,21.275L91.532,0l49.089,15.377L133.829,36.653z"/>
		<path id="path-7_22_" style="fill:#FF3A2F;" d="M179.85,56.478c-0.544,0-1.098-0.082-1.646-0.253L37.077,12.014
			c-2.875-0.901-4.467-3.938-3.56-6.787c0.913-2.846,3.972-4.43,6.851-3.525l141.126,44.212c2.875,0.901,4.468,3.938,3.562,6.784
			C184.317,55.005,182.166,56.478,179.85,56.478z"/>
		<path id="path-8_22_" style="fill:#0CB04A;" d="M85.393,198.408h16.774c3.234,0,5.856,1.164,5.856,2.604
			c0,1.438-2.622,2.605-5.856,2.605h-0.781c-3.235,0-5.856,1.167-5.856,2.605s2.621,2.604,5.856,2.604h36.061
			c3.235,0,5.856,1.167,5.856,2.606c0,1.439-2.621,2.604-5.856,2.604H94.111h-47.63c-3.234,0-5.858-1.165-5.858-2.604
			c0-1.439,2.624-2.606,5.858-2.606h10.007c3.234,0,5.857-1.166,5.857-2.604s-2.623-2.605-5.857-2.605H8.858
			c-3.234,0-5.857-1.167-5.857-2.605c0-1.44,2.623-2.604,5.857-2.604h11.257H85.393z"/>
		<path id="path-9_20_" style="fill:#0CB04A;" d="M189.217,216.291c3.694,0,6.688-1.332,6.688-2.974
			c0-1.643-2.994-2.975-6.688-2.975h-20.489c-3.694,0-6.687,1.332-6.687,2.975c0,1.642,2.993,2.974,6.687,2.974H189.217z"/>
		<path id="path-10_18_" style="fill:#0CB04A;" d="M186.698,182.396h7.703c1.485,0,2.689,0.662,2.689,1.478
			c0,0.817-1.204,1.478-2.689,1.478h-0.358c-1.486,0-2.69,0.661-2.69,1.478c0,0.816,1.204,1.478,2.69,1.478h16.558
			c1.485,0,2.689,0.661,2.689,1.477c0,0.816-1.204,1.478-2.689,1.478h-19.899h-40.674c-1.485,0-2.688-0.662-2.688-1.478
			c0-0.816,1.203-1.477,2.688-1.477h4.596c1.485,0,2.689-0.662,2.689-1.478c0-0.817-1.204-1.478-2.689-1.478h-21.871
			c-1.485,0-2.69-0.661-2.69-1.478c0-0.816,1.205-1.478,2.69-1.478h5.17H186.698z"/>
	</g>
</g>
<g>
</g>
<g>
</g>
<g>
</g>
<g>
</g>
<g>
</g>
<g>
</g>
<g>
</g>
<g>
</g>
<g>
</g>
<g>
</g>
<g>
</g>
<g>
</g>
<g>
</g>
<g>
</g>
<g>
</g>
</svg>
