<?xml version="1.0" encoding="utf-8"?>
<!-- Generator: Adobe Illustrator 18.0.0, SVG Export Plug-In . SVG Version: 6.00 Build 0)  -->
<!DOCTYPE svg PUBLIC "-//W3C//DTD SVG 1.1//EN" "http://www.w3.org/Graphics/SVG/1.1/DTD/svg11.dtd">
<svg version="1.1" id="Layer_1" xmlns="http://www.w3.org/2000/svg" xmlns:xlink="http://www.w3.org/1999/xlink" x="0px" y="0px"
	 viewBox="0 0 100 100" enable-background="new 0 0 100 100" xml:space="preserve">
<g>
	<path fill-rule="evenodd" clip-rule="evenodd" fill="#B9C1C7" d="M38.6,23.3c-6.3,0-11.4,5.1-11.4,11.4c0,6.3,5.1,11.4,11.4,11.4
		C44.9,46,50,40.9,50,34.6C50,28.4,44.9,23.3,38.6,23.3z"/>
	<path fill-rule="evenodd" clip-rule="evenodd" fill="#B9C1C7" d="M38.6,23.3c-6.3,0-11.4,5.1-11.4,11.4c0,6.3,5.1,11.4,11.4,11.4
		C44.9,46,50,40.9,50,34.6C50,28.4,44.9,23.3,38.6,23.3z"/>
	<path fill-rule="evenodd" clip-rule="evenodd" fill="#B9C1C7" d="M38.6,23.3c-6.3,0-11.4,5.1-11.4,11.4c0,6.3,5.1,11.4,11.4,11.4
		C44.9,46,50,40.9,50,34.6C50,28.4,44.9,23.3,38.6,23.3z"/>
	<path fill-rule="evenodd" clip-rule="evenodd" fill="#B9C1C7" d="M94,0H6C2.7,0,0,2.7,0,6v88c0,3.3,2.7,6,6,6h88c3.3,0,6-2.7,6-6V6
		C100,2.7,97.3,0,94,0z M92,58.3L72.3,46L52.9,67.1l-17.6-8.8L8,74.4V12c0-2.2,1.8-4,4-4h76c2.2,0,4,1.8,4,4V58.3z"/>
</g>
</svg>
