<?xml version="1.0" encoding="iso-8859-1"?>
<!-- Generator: Adobe Illustrator 16.0.0, SVG Export Plug-In . SVG Version: 6.00 Build 0)  -->
<!DOCTYPE svg PUBLIC "-//W3C//DTD SVG 1.1//EN" "http://www.w3.org/Graphics/SVG/1.1/DTD/svg11.dtd">
<svg xmlns="http://www.w3.org/2000/svg" xmlns:xlink="http://www.w3.org/1999/xlink" version="1.1" id="Capa_1" x="0px" y="0px" width="512px" height="512px" viewBox="0 0 612 612" style="enable-background:new 0 0 612 612;" xml:space="preserve">
<g>
	<g>
		<path d="M0,389.844c0,55.22,41.338,101.036,95.639,109.882h154.725v-25.898H117.699l-12.713-1.002    c-36.665-5.842-77.167-49.321-77.167-84.873c0-27.763,23.673-72.271,69.406-88.072l-9.208-24.035    c-2.142-4.618-3.227-9.542-3.227-14.66c0-19.974,20.196-49.656,51.881-49.656c10.877,0,23.618,5.425,30.934,13.13l29.905,20.808    l25.426-33.911c28.819-42.951,77.39-72.466,132.136-72.466c77.251,0,153.501,73.635,154.725,147.242v26.093l26.9,7.205    c30.321,10.209,50.657,37.666,50.657,68.321c0,35.524-36.387,80.033-73.051,85.875h-16.83H361.637v25.898h154.725    C570.662,490.88,612,445.063,612,389.844c0-48.515-31.936-89.797-76.527-105.097c-1.614-96.084-82.343-173.475-181.653-173.475    c-71.632,0-133.583,40.253-163.181,98.755c-13.993-15.022-34.244-24.48-56.777-24.48c-42.256,0-76.5,33.271-76.5,74.274    c0,10.71,2.336,20.892,6.509,30.099C26.038,308.114,0,346.03,0,389.844z" fill="#006DF0"/>
		<polygon points="250.725,250.364 250.725,375.546 194.727,375.546 306,500.728 417.272,375.546 361.775,375.546 361.775,250.364       " fill="#006DF0"/>
	</g>
</g>
<g>
</g>
<g>
</g>
<g>
</g>
<g>
</g>
<g>
</g>
<g>
</g>
<g>
</g>
<g>
</g>
<g>
</g>
<g>
</g>
<g>
</g>
<g>
</g>
<g>
</g>
<g>
</g>
<g>
</g>
</svg>
