<?xml version="1.0" encoding="iso-8859-1"?>
<!-- Generator: Adobe Illustrator 16.0.0, SVG Export Plug-In . SVG Version: 6.00 Build 0)  -->
<!DOCTYPE svg PUBLIC "-//W3C//DTD SVG 1.1//EN" "http://www.w3.org/Graphics/SVG/1.1/DTD/svg11.dtd">
<svg xmlns="http://www.w3.org/2000/svg" xmlns:xlink="http://www.w3.org/1999/xlink" version="1.1" id="Capa_1" x="0px" y="0px" width="512px" height="512px" viewBox="0 0 875.083 875.083" style="enable-background:new 0 0 875.083 875.083;" xml:space="preserve">
<g>
	<path d="M40.555,663.102v54.481c0,86.846,70.654,157.5,157.5,157.5h478.973c86.846,0,157.5-70.654,157.5-157.5v-54.481   c0-28.995-23.506-52.5-52.5-52.5c-28.996,0-52.5,23.505-52.5,52.5v54.481c0,28.949-23.553,52.5-52.5,52.5H198.055   c-28.949,0-52.5-23.551-52.5-52.5v-54.481c0-28.995-23.505-52.5-52.5-52.5C64.06,610.602,40.555,634.106,40.555,663.102z" fill="#1f9da6"/>
	<path d="M476.567,15.601c-9.787-9.904-23.107-15.516-37.031-15.599c-13.948-0.102-27.311,5.367-37.214,15.154L269.049,146.839   c-20.625,20.379-20.824,53.62-0.445,74.245c10.271,10.394,23.806,15.6,37.348,15.6c13.33,0,26.667-5.046,36.897-15.155   l42.192-41.689v481.262c0,28.995,23.505,52.5,52.5,52.5c28.995,0,52.5-23.505,52.5-52.5V178.631l41.746,42.25   c20.381,20.625,53.621,20.825,74.246,0.445s20.824-53.62,0.445-74.245L476.567,15.601z" fill="#1f9da6"/>
</g>
<g>
</g>
<g>
</g>
<g>
</g>
<g>
</g>
<g>
</g>
<g>
</g>
<g>
</g>
<g>
</g>
<g>
</g>
<g>
</g>
<g>
</g>
<g>
</g>
<g>
</g>
<g>
</g>
<g>
</g>
</svg>
